<svg width="16" height="13" viewBox="0 0 16 13" fill="none" xmlns="http://www.w3.org/2000/svg">
<path d="M13.589 1.2288L6.32305 10.3078L2.2499 6.38991C1.78344 5.94126 1.04158 5.95561 0.592932 6.42208C0.144279 6.88854 0.158635 7.6304 0.6251 8.07905L4.75508 12.0516C4.75672 12.0532 4.75842 12.0548 4.76006 12.0564C5.18774 12.463 5.74127 12.6838 6.32768 12.6838C6.35914 12.6838 6.39061 12.6831 6.42213 12.6818C7.04328 12.6569 7.61375 12.388 8.02848 11.9249C8.04289 11.9087 8.05684 11.8922 8.07037 11.8753L15.4189 2.69323C15.8233 2.18792 15.7415 1.45046 15.2362 1.04604C14.7308 0.641629 13.9934 0.723426 13.589 1.2288Z" fill="#434B53"/>
</svg>
