<svg width="40" height="40" viewBox="0 0 40 40" fill="none" xmlns="http://www.w3.org/2000/svg">
<path d="M34.1406 0H5.85938C2.62852 0 0 2.62852 0 5.85938V34.1406C0 37.3715 2.62852 40 5.85938 40H34.1406C37.3715 40 40 37.3715 40 34.1406V5.85938C40 2.62852 37.3715 0 34.1406 0ZM23.5156 24.6094V37.6562H21.1719V24.6094C21.1719 23.9622 20.6472 23.4375 20 23.4375H16.4844V21.0938H20C20.6472 21.0938 21.1719 20.5691 21.1719 19.9219V15.2344C21.1719 12.0035 23.8004 9.375 27.0312 9.375H30.5469V11.7188H27.0312C25.0927 11.7188 23.5156 13.2959 23.5156 15.2344V19.9219C23.5156 20.5691 24.0403 21.0938 24.6875 21.0938H30.2178L29.6319 23.4375H24.6875C24.0403 23.4375 23.5156 23.9622 23.5156 24.6094ZM37.6562 34.1406C37.6562 36.0791 36.0791 37.6562 34.1406 37.6562H25.8594V25.7812H30.5469C31.0846 25.7812 31.5534 25.4152 31.6838 24.8936L32.8556 20.2061C33.0406 19.4664 32.4798 18.75 31.7188 18.75H25.8594V15.2344C25.8594 14.5882 26.3851 14.0625 27.0312 14.0625H31.7188C32.3659 14.0625 32.8906 13.5378 32.8906 12.8906V8.20312C32.8906 7.55594 32.3659 7.03125 31.7188 7.03125H27.0312C22.508 7.03125 18.8281 10.7112 18.8281 15.2344V18.75H15.3125C14.6653 18.75 14.1406 19.2747 14.1406 19.9219V24.6094C14.1406 25.2566 14.6653 25.7734 15.3125 25.7734H18.8281V37.6562H5.85938C3.92086 37.6562 2.34375 36.0791 2.34375 34.1406V5.85938C2.34375 3.92086 3.92086 2.34375 5.85938 2.34375H34.1406C36.0791 2.34375 37.6562 3.92086 37.6562 5.85938V34.1406Z" fill="#F9B000"/>
</svg>
