<svg width="50" height="50" viewBox="0 0 50 50" fill="none" xmlns="http://www.w3.org/2000/svg">
<path d="M39.4792 30.8019C38.498 28.7561 34.9875 25.9165 31.5959 23.1727C29.7042 21.6435 27.9167 20.1977 26.7772 19.0582C26.4917 18.7707 26.0647 18.679 25.6876 18.8144C24.9856 19.0686 24.5522 19.2644 24.2106 19.4165C23.6898 19.6498 23.5148 19.729 22.8126 19.7998C22.5022 19.831 22.2231 19.9977 22.0501 20.256C20.5772 22.4581 19.0522 22.2706 18.0334 21.929C17.7084 21.8207 17.6501 21.681 17.6189 21.5477C17.4001 20.6332 18.4981 18.504 19.9209 17.081C23.3064 13.6935 25.0522 12.8456 28.7397 14.4935C32.923 16.3643 37.1147 17.829 37.1564 17.8435C37.7043 18.0331 38.2939 17.7456 38.4834 17.2018C38.6709 16.6581 38.3855 16.0643 37.8417 15.8748C37.8 15.8602 33.6917 14.4248 29.5917 12.5893C24.8147 10.4539 22.1938 11.8601 18.45 15.606C17.025 17.031 15.0896 19.9143 15.5896 22.029C15.8041 22.929 16.4375 23.5957 17.3791 23.906C19.7396 24.6852 21.8937 23.9393 23.4979 21.8102C24.1604 21.7082 24.5208 21.5582 25.0624 21.3144C25.2582 21.2269 25.4874 21.1249 25.7916 21.0019C26.9833 22.1207 28.5916 23.4227 30.2854 24.7915C33.3479 27.2685 36.8208 30.0769 37.6021 31.7019C37.9875 32.504 37.5729 33.0269 37.2916 33.2665C36.8791 33.6207 36.3146 33.7332 36.0083 33.5185C35.6708 33.2873 35.2313 33.2727 34.8833 33.481C34.5333 33.6893 34.3375 34.0831 34.3813 34.4873C34.4521 35.1498 33.8458 35.529 33.5833 35.6602C32.9166 35.9977 32.2208 35.9394 31.9604 35.6977C31.6687 35.4269 31.2499 35.3477 30.8791 35.4852C30.5083 35.6248 30.2499 35.9665 30.2124 36.3623C30.1499 37.0456 29.6437 37.7018 28.9832 37.9581C28.6645 38.0789 28.202 38.1518 27.7874 37.7726C27.5291 37.5393 27.1707 37.4497 26.8354 37.5309C26.4958 37.6142 26.2229 37.8601 26.1041 38.1872C26.0646 38.2914 25.9749 38.5414 24.9999 38.5414C24.3062 38.5414 23.0582 38.0726 22.4479 37.6684C21.7166 37.1872 17.1312 33.7664 13.1708 30.4497C12.6146 29.9809 11.6521 28.9767 10.8021 28.0892C10.0479 27.3017 9.35832 26.5872 9.00412 26.2872C8.56037 25.9122 7.90412 25.9684 7.53537 26.4101C7.16457 26.8497 7.21867 27.5081 7.65832 27.8789C7.98127 28.1518 8.60627 28.8122 9.29582 29.5309C10.225 30.5017 11.1854 31.5059 11.8313 32.0476C15.7105 35.2956 20.373 38.8018 21.3021 39.4122C22.0688 39.9164 23.7208 40.6247 25 40.6247C26.0271 40.6247 26.8167 40.3892 27.3646 39.9289C28.0979 40.2143 28.9313 40.2164 29.7333 39.9039C30.6813 39.5372 31.4604 38.7976 31.9021 37.9018C32.7229 38.0768 33.6625 37.9539 34.5166 37.5248C35.3521 37.104 35.9562 36.4602 36.2562 35.7081C37.0854 35.7518 37.9395 35.4581 38.6457 34.8518C39.8417 33.829 40.1708 32.2374 39.4792 30.8019Z" fill="#CCA243"/>
<path d="M20.8332 13.541H11.4582C10.8832 13.541 10.4165 14.0077 10.4165 14.5827C10.4165 15.1577 10.8832 15.6244 11.4582 15.6244H20.8332C21.4082 15.6244 21.8749 15.1577 21.8749 14.5827C21.8749 14.0077 21.4082 13.541 20.8332 13.541Z" fill="#CCA243"/>
<path d="M42.5312 28.5853C42.2082 28.1083 41.5624 27.977 41.0854 28.302L38.0396 30.3478C37.5625 30.6686 37.4354 31.3166 37.7563 31.7936C37.9583 32.0916 38.2875 32.2541 38.623 32.2541C38.8209 32.2541 39.023 32.1978 39.2022 32.077L42.248 30.0312C42.7249 29.7103 42.852 29.0625 42.5312 28.5853Z" fill="#CCA243"/>
<path d="M36.0645 33.5562C35.3187 32.9687 31.9833 29.5542 29.9208 27.4042C29.5228 26.9875 28.8625 26.9729 28.4478 27.3729C28.0311 27.7709 28.0186 28.4312 28.4166 28.8459C28.952 29.4042 33.6749 34.3271 34.7728 35.1938C34.9624 35.3438 35.1915 35.4168 35.4165 35.4168C35.7228 35.4168 36.029 35.2793 36.2374 35.0188C36.5937 34.5687 36.5166 33.9125 36.0645 33.5562Z" fill="#CCA243"/>
<path d="M31.902 35.6458C30.6541 34.6479 27.5187 31.3166 26.8103 30.5458C26.4186 30.1208 25.7624 30.0958 25.3374 30.4833C24.9144 30.8729 24.8853 31.5333 25.2749 31.9563C25.3124 31.9958 29.0541 36.0355 30.5999 37.273C30.7916 37.425 31.0228 37.5 31.2499 37.5C31.5541 37.5 31.8582 37.3646 32.0644 37.1105C32.4229 36.6604 32.35 36.0041 31.902 35.6458Z" fill="#CCA243"/>
<path d="M27.7562 37.7431C26.2708 36.491 23.2312 33.2556 22.6374 32.6201C22.2437 32.1993 21.5832 32.1764 21.1645 32.5701C20.7437 32.9639 20.7228 33.6222 21.1145 34.0431C21.9687 34.9576 24.877 38.041 26.4124 39.3368C26.6083 39.5014 26.8458 39.5826 27.0833 39.5826C27.3791 39.5826 27.675 39.4556 27.8812 39.2118C28.252 38.7701 28.1958 38.1139 27.7562 37.7431Z" fill="#CCA243"/>
<path d="M12.175 11.7431C10.3896 10.0514 3.25 9.50347 1.1042 9.37642C0.808398 9.36187 0.535449 9.45972 0.327148 9.65767C0.11875 9.85347 0 10.1285 0 10.416V29.166C0 29.741 0.466699 30.2077 1.0417 30.2077H7.2917C7.7417 30.2077 8.1417 29.9181 8.28125 29.4889C8.4333 29.0222 12.023 18.0056 12.4958 12.5889C12.523 12.2722 12.4063 11.9597 12.175 11.7431ZM6.53125 28.1244H2.0833V11.5327C5.43125 11.7972 9.04375 12.3722 10.3563 13.0097C9.8042 17.5722 7.30625 25.6785 6.53125 28.1244Z" fill="#CCA243"/>
<path d="M48.9582 11.458C40.779 11.458 36.2415 13.5518 36.0519 13.6393C35.7811 13.7663 35.579 14.0018 35.4957 14.2872C35.4124 14.5727 35.454 14.8789 35.6102 15.133C36.8977 17.206 40.929 28.7185 41.704 31.5268C41.829 31.9788 42.2394 32.2913 42.7082 32.2913H48.9582C49.5332 32.2913 49.9999 31.8246 49.9999 31.2496V12.4996C49.9999 11.9226 49.5332 11.458 48.9582 11.458ZM47.9166 30.208H43.4874C42.4999 26.9913 39.5832 18.6038 37.9561 15.1372C39.5457 14.5977 42.9603 13.6705 47.9166 13.5539V30.208Z" fill="#CCA243"/>
</svg>
