<svg width="50" height="50" viewBox="0 0 50 50" fill="none" xmlns="http://www.w3.org/2000/svg">
<g clip-path="url(#clip0)">
<path d="M15 5.00098H4.16675V6.66762H15V5.00098Z" fill="#C89C36"/>
<path d="M15 8.33398H4.16675V10.0006H15V8.33398Z" fill="#C89C36"/>
<path d="M11.6667 11.667H4.16675V13.3336H11.6667V11.667Z" fill="#C89C36"/>
<path d="M11.6667 15.001H4.16675V16.6676H11.6667V15.001Z" fill="#C89C36"/>
<path d="M49.9996 48.334H0.000244141V50.0006H49.9996V48.334Z" fill="#C89C36"/>
<path d="M48.2455 7.12712L44.9122 0.460533C44.7067 0.0486635 44.2063 -0.118626 43.7945 0.0868923C43.7943 0.0869964 43.7941 0.0871006 43.7939 0.0872048L37.1273 3.4205C36.7154 3.62622 36.5482 4.12695 36.7539 4.53882C36.9597 4.95069 37.4604 5.11787 37.8723 4.91214L42.7005 2.49967L41.383 6.26129C35.5922 22.7536 20.6769 34.3239 3.2627 35.8326L3.40436 37.4992C21.4747 35.9338 36.9512 23.926 42.9572 6.81129L44.3022 2.968L46.7538 7.87211C46.9595 8.28398 47.4603 8.45116 47.8721 8.24543C48.2841 8.03971 48.4512 7.53909 48.2455 7.12712Z" fill="#C89C36"/>
<path d="M10.0001 40H4.16682C3.70662 40 3.3335 40.3731 3.3335 40.8333V45.8333C3.3335 46.2935 3.70662 46.6666 4.16682 46.6666H10.0001C10.4603 46.6666 10.8334 46.2935 10.8334 45.8333V40.8333C10.8334 40.3731 10.4603 40 10.0001 40ZM9.16676 44.9999H5.00014V41.6666H9.16676V44.9999Z" fill="#C89C36"/>
<path d="M19.1666 37.5H13.3333C12.8731 37.5 12.5 37.8731 12.5 38.3333V45.8332C12.5 46.2934 12.8731 46.6665 13.3333 46.6665H19.1666C19.6268 46.6665 19.9999 46.2934 19.9999 45.8332V38.3333C19.9999 37.8731 19.6268 37.5 19.1666 37.5ZM18.3333 44.9999H14.1666V39.1666H18.3333V44.9999Z" fill="#C89C36"/>
<path d="M28.3333 33.334H22.5001C22.0399 33.334 21.6667 33.7071 21.6667 34.1673V45.8338C21.6667 46.294 22.0399 46.6672 22.5001 46.6672H28.3333C28.7935 46.6672 29.1666 46.294 29.1666 45.8338V34.1673C29.1666 33.7071 28.7935 33.334 28.3333 33.334ZM27.5 45.0005H23.3334V35.0006H27.5V45.0005Z" fill="#C89C36"/>
<path d="M37.4998 27.5H31.6666C31.2064 27.5 30.8333 27.8731 30.8333 28.3333V45.8331C30.8333 46.2933 31.2064 46.6664 31.6666 46.6664H37.4998C37.96 46.6664 38.3332 46.2933 38.3332 45.8331V28.3333C38.3332 27.8731 37.96 27.5 37.4998 27.5ZM36.6665 44.9998H32.4999V29.1666H36.6665V44.9998Z" fill="#C89C36"/>
<path d="M46.6666 15.834H40.8333C40.3731 15.834 40 16.2071 40 16.6673V45.8336C40 46.2938 40.3731 46.6669 40.8333 46.6669H46.6666C47.1268 46.6669 47.4999 46.2938 47.4999 45.8336V16.6673C47.4999 16.2071 47.1268 15.834 46.6666 15.834ZM45.8333 45.0003H41.6666V17.5006H45.8333V45.0003Z" fill="#C89C36"/>
</g>
<defs>
<clipPath id="clip0">
<rect width="50" height="50" fill="white"/>
</clipPath>
</defs>
</svg>
