<svg width="50" height="50" viewBox="0 0 50 50" fill="none" xmlns="http://www.w3.org/2000/svg">
<path d="M35.7422 38.6719C35.2031 38.6719 34.7656 39.1094 34.7656 39.6484C34.7656 40.1875 35.2031 40.625 35.7422 40.625C36.2812 40.625 36.7188 40.1875 36.7188 39.6484C36.7188 39.1094 36.2812 38.6719 35.7422 38.6719Z" fill="#C89C36"/>
<path d="M42.5339 44.095C41.8812 42.7886 40.9253 41.6281 39.7693 40.7388C39.3418 40.4098 38.7287 40.4898 38.3999 40.9173C38.071 41.3449 38.151 41.958 38.5784 42.2869C39.5016 42.9971 40.2651 43.9242 40.7865 44.9678C41.028 45.4511 41.6149 45.6456 42.0966 45.405C42.579 45.164 42.7748 44.5775 42.5339 44.095Z" fill="#C89C36"/>
<path d="M37.8037 37.3247L33.2832 35.9712L31.6604 33.0551C33.1224 31.7181 34.1375 29.9492 34.4798 28.1041L34.6822 27.0142H36.413C37.9863 27.0142 39.2663 25.8642 39.2663 24.4507V19.0674C39.2663 11.9999 32.8664 6.25 25 6.25C17.1134 6.25 10.7337 11.9834 10.7337 19.0674V24.4507C10.7337 25.5646 11.5289 26.5145 12.6359 26.8672V27.8687C12.6359 29.2822 13.9158 30.4321 15.4891 30.4321H16.3244C16.7367 31.2368 17.2703 31.9821 17.9197 32.6516C18.0544 32.7907 18.1949 32.9255 18.3388 33.0567L16.7168 35.9712L12.1962 37.3248C6.94 38.8995 3.125 43.8708 3.125 49.1455C3.125 49.6174 3.5508 50 4.07609 50H45.9239C46.4491 50 46.875 49.6174 46.875 49.1455C46.875 43.8708 43.0601 38.8995 37.8037 37.3247ZM37.3641 24.4507C37.3641 24.9219 36.9375 25.3052 36.413 25.3052H34.9615C35.2033 23.6227 35.3644 21.8323 35.4291 20.0688C35.431 20.0191 35.4326 19.9708 35.4343 19.9219H37.3641V24.4507ZM13.587 25.3052C13.0625 25.3052 12.6359 24.9219 12.6359 24.4507V19.9219H14.5664C14.5695 20.011 14.5729 20.1005 14.5766 20.1907C14.5767 20.1938 14.5768 20.1968 14.5769 20.1998C14.5769 20.2001 14.5769 20.2004 14.5769 20.2006C14.6435 21.9157 14.8025 23.6597 15.0388 25.3051H13.587V25.3052ZM15.4891 28.7231C14.9647 28.7231 14.538 28.3398 14.538 27.8687V27.0142H15.3177L15.5201 28.1044C15.5588 28.3116 15.6062 28.5181 15.6611 28.7231H15.4891ZM14.5397 18.2129H12.672C13.1537 12.486 18.4734 7.95898 25 7.95898C31.4976 7.95898 36.8407 12.4854 37.3279 18.2129H35.4604C35.392 13.4938 31.1146 9.66797 25.8513 9.66797H24.1489C18.8857 9.66797 14.608 13.4938 14.5397 18.2129ZM24.1488 11.377H25.8512C30.1129 11.377 33.5623 14.5088 33.5598 18.3334C33.5598 18.6023 33.5574 18.8364 33.5524 19.0494C33.5524 19.0522 33.5523 19.055 33.5523 19.0578L32.3626 18.9051C29.1309 18.4905 26.0794 17.1197 23.7703 15.0452C23.5919 14.885 23.3501 14.7949 23.0978 14.7949C20.5436 14.7949 18.0985 15.8405 16.4823 17.6069C16.8806 14.1275 20.1545 11.377 24.1488 11.377ZM17.6329 28.7231C17.1568 27.3002 16.612 23.1131 16.4916 20.43L17.7716 18.8966C18.9473 17.4887 20.7763 16.614 22.722 16.5136C25.282 18.7024 28.5939 20.1479 32.0937 20.5968L33.4939 20.7766C33.4003 22.5612 33.209 24.3521 32.935 25.9991C32.9349 25.9996 32.9348 26.0002 32.9347 26.0008C32.8476 26.5303 32.7789 26.8711 32.6036 27.8229C32.0999 30.5372 29.8456 32.9918 26.8697 33.6602C25.645 33.9349 24.3548 33.9349 23.1307 33.6602C21.2726 33.2429 19.5688 32.0878 18.4693 30.4321H20.4082C20.8008 31.4267 21.8579 32.1411 23.0978 32.1411H25C26.5764 32.1411 27.8533 30.994 27.8533 29.5776C27.8533 28.1641 26.5733 27.0142 25 27.0142H23.0978C21.8303 27.0142 20.7888 27.7497 20.4065 28.7231H17.6329ZM23.0178 35.3895C23.6702 35.513 24.3353 35.5762 25 35.5762C25.5203 35.5762 26.0408 35.537 26.5553 35.4612L24.8747 37.0579L23.0178 35.3895ZM23.5672 38.3002L20.5505 41.1663C19.72 39.7381 19.0064 38.2518 18.4211 36.7301L19.554 34.6945L23.5672 38.3002ZM30.2848 34.405L31.5787 36.73C30.9924 38.2542 30.2786 39.7411 29.449 41.1676L26.2202 38.2668L30.2848 34.405ZM22.1467 29.5776C22.1467 29.1059 22.5726 28.7231 23.0978 28.7231H25C25.5244 28.7231 25.9511 29.1065 25.9511 29.5776C25.9511 30.0495 25.5251 30.4321 25 30.4321H23.0978C22.5734 30.4321 22.1467 30.0488 22.1467 29.5776ZM5.06522 48.291C5.44213 44.0579 8.57777 40.2103 12.7977 38.946L16.8013 37.7474C17.5347 39.5696 18.4434 41.3407 19.5083 43.023C19.5101 43.0259 19.5118 43.0288 19.5137 43.0316C19.5137 43.0317 19.5138 43.0317 19.5138 43.0318C20.2918 44.2613 21.1676 45.4628 22.1171 46.6035L23.2871 48.291H5.06522ZM25 47.5293L23.7101 45.6688C23.6957 45.648 23.6803 45.6277 23.6639 45.6081C22.8937 44.6851 22.1753 43.7197 21.5209 42.7317L24.9128 39.5091L28.4868 42.7201C27.8281 43.7153 27.1071 44.6846 26.3363 45.6079C26.2897 45.6637 26.3558 45.5758 25 47.5293ZM26.7129 48.291L27.8828 46.6036C28.8365 45.4585 29.7185 44.2474 30.5044 43.0034C30.5092 42.9959 30.5136 42.9882 30.5184 42.9807C30.519 42.9797 30.5195 42.9789 30.5201 42.978C31.5715 41.3117 32.4707 39.556 33.1988 37.7474L37.2022 38.946C41.4222 40.2103 44.5579 44.0579 44.9348 48.291H26.7129Z" fill="#C89C36"/>
</svg>
