<svg width="40" height="40" viewBox="0 0 40 40" fill="none" xmlns="http://www.w3.org/2000/svg">
<path d="M30.625 0H9.375C4.20563 0 0 4.20563 0 9.375V30.625C0 35.7944 4.20563 40 9.375 40H30.625C35.7944 40 40 35.7944 40 30.625V9.375C40 4.20563 35.7944 0 30.625 0ZM36.875 30.625C36.875 34.0714 34.0714 36.875 30.625 36.875H9.375C5.92865 36.875 3.125 34.0714 3.125 30.625V9.375C3.125 5.92865 5.92865 3.125 9.375 3.125H30.625C34.0714 3.125 36.875 5.92865 36.875 9.375V30.625ZM20 11.1719C15.1321 11.1719 11.1719 15.1321 11.1719 20C11.1719 24.8679 15.1321 28.8281 20 28.8281C24.8679 28.8281 28.8281 24.8679 28.8281 20C28.8281 15.1321 24.8679 11.1719 20 11.1719ZM20 25.7031C16.8552 25.7031 14.2969 23.1448 14.2969 20C14.2969 16.8552 16.8552 14.2969 20 14.2969C23.1448 14.2969 25.7031 16.8552 25.7031 20C25.7031 23.1448 23.1448 25.7031 20 25.7031ZM32.2916 9.66156C32.2916 10.7401 31.4172 11.6147 30.3384 11.6147C29.2599 11.6147 28.3853 10.7401 28.3853 9.66156C28.3853 8.58276 29.2599 7.70844 30.3384 7.70844C31.4172 7.70844 32.2916 8.58276 32.2916 9.66156Z" fill="#F9B000"/>
</svg>
