<svg width="35" height="35" viewBox="0 0 35 35" fill="none" xmlns="http://www.w3.org/2000/svg">
<g clip-path="url(#clip0)">
<path d="M31.3951 31.875C31.3951 33.601 29.9932 35 28.2639 35H6.73625C5.00689 35 3.60498 33.6009 3.60498 31.875V3.12498C3.60498 1.39911 5.00689 0 6.73625 0H20.1379C20.7616 0 21.3598 0.247598 21.8003 0.688242L30.7091 9.5982C31.1484 10.0375 31.3951 10.633 31.3951 11.2537V31.875Z" fill="#F9F8F9"/>
<path d="M8.84862 35H6.73598C5.0071 35 3.60498 33.6007 3.60498 31.8747V3.12532C3.60498 1.39932 5.0071 0 6.73598 0H8.84862C7.11975 0 5.71763 1.39932 5.71763 3.12532V31.8746C5.71763 33.6007 7.11975 35 8.84862 35Z" fill="#E3E0E4"/>
<path d="M31.3951 11.2535V12.3972H23.2289C20.8964 12.3972 18.9993 10.4993 18.9993 8.16689V0H20.138C20.7612 0 21.3599 0.247871 21.8 0.688037L30.7091 9.59793C31.1486 10.0373 31.3951 10.6331 31.3951 11.2535Z" fill="#E3E0E4"/>
<path d="M31.1845 10.2845H23.2288C22.0598 10.2845 21.1119 9.33659 21.1119 8.16683V0.211914C21.3662 0.326689 21.5993 0.487266 21.8 0.687969L30.7091 9.59786C30.9098 9.7985 31.0697 10.0309 31.1845 10.2845Z" fill="#DC4955"/>
<path d="M30.1056 30.352H4.8944C3.33868 30.352 2.07751 29.0908 2.07751 27.5351V17.2534C2.07751 15.6977 3.33875 14.4365 4.8944 14.4365H30.1057C31.6614 14.4365 32.9226 15.6978 32.9226 17.2534V27.5351C32.9226 29.0909 31.6613 30.352 30.1056 30.352Z" fill="#DC4955"/>
<path d="M6.65493 30.352H4.8944C3.33874 30.352 2.07751 29.0907 2.07751 27.5351V17.2534C2.07751 15.6978 3.33881 14.4365 4.8944 14.4365H6.65499C5.09934 14.4365 3.83811 15.6978 3.83811 17.2534V27.5351C3.83804 29.0907 5.09927 30.352 6.65493 30.352Z" fill="#C42430"/>
<path d="M26.5283 18.9381C26.82 18.9381 27.0565 18.7017 27.0565 18.41C27.0565 18.1182 26.82 17.8818 26.5283 17.8818H23.2985C23.0068 17.8818 22.7704 18.1182 22.7704 18.41V26.3788C22.7704 26.6706 23.0068 26.907 23.2985 26.907C23.5902 26.907 23.8267 26.6706 23.8267 26.3788V22.8471H26.2718C26.5634 22.8471 26.7999 22.6107 26.7999 22.319C26.7999 22.0272 26.5634 21.7908 26.2718 21.7908H23.8267V18.9381H26.5283Z" fill="#F9F8F9"/>
<path d="M17.6878 17.9707H15.4814C15.3411 17.9707 15.2067 18.0265 15.1076 18.1257C15.0086 18.225 14.953 18.3595 14.9532 18.4998V18.5067V18.507V26.1626C14.9532 26.2061 14.9591 26.2481 14.969 26.2886V26.291C14.9695 26.4311 15.0257 26.5653 15.1251 26.664C15.224 26.7622 15.3579 26.8173 15.4972 26.8173H15.4992C15.5657 26.817 17.1359 26.8109 17.7616 26.8001C18.8222 26.7815 19.7666 26.3009 20.421 25.4468C21.0277 24.655 21.3619 23.5708 21.3619 22.394C21.3619 19.7483 19.8854 17.9707 17.6878 17.9707ZM17.7432 25.7439C17.3501 25.7507 16.555 25.7557 16.0236 25.7584C16.0207 24.8873 16.0153 23.1692 16.0153 22.3854C16.0153 21.7302 16.0123 19.929 16.0106 19.0271H17.6878C19.6179 19.0271 20.3056 20.7663 20.3056 22.394C20.3055 24.34 19.2518 25.7175 17.7432 25.7439Z" fill="#F9F8F9"/>
<path d="M10.0035 17.8721H7.74989C7.28874 17.8721 7.2644 18.0729 7.2644 18.3574V26.4509C7.2644 26.7189 7.48165 26.9362 7.74969 26.9362C8.01766 26.9362 8.23497 26.719 8.23497 26.4509V23.4179C8.7612 23.4149 9.59641 23.4106 10.0033 23.4106C11.5549 23.4106 12.8173 22.1683 12.8173 20.6413C12.8172 19.1144 11.5551 17.8721 10.0035 17.8721ZM10.0035 22.4401C9.59929 22.4401 8.77631 22.4443 8.2481 22.4474C8.24509 21.9064 8.24078 21.0535 8.24078 20.6414C8.24078 20.2951 8.23832 19.4044 8.23661 18.8426H10.0034C11.0027 18.8426 11.8469 19.6663 11.8469 20.6414C11.8469 21.6165 11.0027 22.4401 10.0035 22.4401Z" fill="#F9F8F9"/>
</g>
<defs>
<clipPath id="clip0">
<rect width="35" height="35" fill="white"/>
</clipPath>
</defs>
</svg>
