<svg width="42" height="42" viewBox="0 0 42 42" fill="none" xmlns="http://www.w3.org/2000/svg">
<g clip-path="url(#clip0)">
<path d="M34.6469 40.1112C35.7441 40.1459 36.8252 39.7702 37.664 39.0523C38.6019 38.2497 39.1621 37.0815 39.2011 35.848L39.388 29.9368C39.459 27.6935 37.8443 25.7601 35.6323 25.4399C34.3304 25.2513 33.0414 24.9412 31.8003 24.5184C30.247 23.9891 28.5444 24.352 27.3576 25.4659L24.8867 27.7851C20.379 25.1305 16.6749 21.1845 14.3106 16.5191L16.7818 14.1996C17.9684 13.0855 18.4382 11.4093 18.0078 9.82542C17.6642 8.56011 17.4362 7.25403 17.3302 5.94311C17.1506 3.71502 15.3231 1.98144 13.0798 1.91051L7.16888 1.72361C5.93514 1.6846 4.73383 2.16987 3.87366 3.05522C3.00972 3.94389 2.55733 5.16456 2.63196 6.40373C2.88812 10.6574 3.8828 14.7881 5.58846 18.6814C7.24647 22.4665 9.52621 25.9186 12.3647 28.9425C15.203 31.9661 18.5044 34.4598 22.1771 36.3534C25.9551 38.3014 30.0147 39.5553 34.2437 40.0799C34.3781 40.0968 34.5124 40.107 34.6469 40.1112ZM30.4106 27.21C30.5588 27.2147 30.7089 27.2417 30.855 27.2914C32.2665 27.7725 33.7323 28.125 35.2124 28.3395C35.9471 28.4458 36.4836 29.0927 36.4598 29.8443L36.2729 35.7554C36.2597 36.174 36.077 36.5543 35.7588 36.8264C35.4371 37.1022 35.027 37.2251 34.6045 37.1723C18.7348 35.2043 6.51809 22.1895 5.55632 6.22736C5.5306 5.80244 5.67932 5.4009 5.97449 5.09697C6.26656 4.79683 6.65765 4.6386 7.07629 4.65183L12.9872 4.83873C13.7387 4.8625 14.3504 5.43853 14.4104 6.17871C14.5307 7.66939 14.7899 9.15461 15.1806 10.5936C15.3262 11.1295 15.1717 11.6927 14.7767 12.0636L10.7535 15.8401L11.1927 16.7977C13.931 22.7674 18.626 27.7683 24.4119 30.879L25.3398 31.3782L29.3627 27.6017C29.6475 27.3343 30.0247 27.1978 30.4106 27.21Z" fill="#F9B000"/>
</g>
<defs>
<clipPath id="clip0">
<rect width="40" height="40" fill="white" transform="matrix(-0.9995 -0.031604 -0.031604 0.9995 41.5547 1.58008)"/>
</clipPath>
</defs>
</svg>
