<svg width="40" height="40" viewBox="0 0 40 40" fill="none" xmlns="http://www.w3.org/2000/svg">
<g clip-path="url(#clip0)">
<path d="M39.7026 1.60347C39.3565 1.21597 38.8104 1.11206 38.358 1.30972L0.702093 17.794C0.284909 17.9768 0.0106923 18.3854 0.000536169 18.8416C-0.00962 19.2971 0.245847 19.7174 0.655219 19.919L9.64655 24.3408L11.8872 37.7829C11.9598 38.293 12.3606 38.7032 12.8825 38.7774C13.2575 38.8313 13.6301 38.6993 13.8879 38.4337L20.9863 31.3353L31.1159 38.5711C31.4409 38.8024 31.8597 38.8532 32.2284 38.7071C32.5979 38.561 32.8682 38.2368 32.9464 37.8469L39.9776 2.61283C40.0471 2.26362 39.9573 1.8894 39.7026 1.60347ZM10.5747 22.1853L3.95363 18.9291L30.1112 7.47842L10.5747 22.1853ZM14.2418 25.6689L13.152 31.1181L11.9762 24.0634L26.3488 13.244L14.5614 25.0713C14.3957 25.2369 14.2856 25.4525 14.2418 25.6689ZM14.9551 34.0517L16.1848 27.9056L19.0527 29.954L14.9551 34.0517ZM31.0026 35.6095L17.1957 25.7478L36.9198 5.95812L31.0026 35.6095Z" fill="#F9B000"/>
</g>
<defs>
<clipPath id="clip0">
<rect width="40" height="40" fill="white"/>
</clipPath>
</defs>
</svg>
