<svg width="20" height="18" viewBox="0 0 20 18" fill="none" xmlns="http://www.w3.org/2000/svg">
<path d="M19.1271 0.301339C18.2246 -0.184623 17.218 0.75259 16.6279 1.30797C15.2742 2.62702 14.1287 4.15432 12.8443 5.54279C11.4211 7.0701 10.1021 8.59741 8.64421 10.0901C7.81113 10.9231 6.90863 11.8256 6.35324 12.867C5.10363 11.652 4.02757 10.333 2.6391 9.25698C1.63247 8.49333 -0.0336895 7.93794 0.00102212 9.77766C0.0704453 12.1728 2.18785 14.7415 3.74987 16.3729C4.40939 17.0671 5.27718 17.796 6.28382 17.8307C7.49872 17.9002 8.74834 16.4423 9.47728 15.6439C10.7617 14.2555 11.803 12.6934 12.9832 11.2703C14.5105 9.39583 16.0725 7.55606 17.5651 5.64692C18.5023 4.46673 21.4528 1.5509 19.1271 0.301339ZM1.52828 9.63881C1.49356 9.63881 1.45885 9.63881 1.38943 9.67347C1.25058 9.63881 1.14645 9.60404 1.0076 9.53462C1.11174 9.4652 1.28529 9.49991 1.52828 9.63881Z" fill="#F9B000"/>
</svg>
